<svg width="42" height="42" viewBox="0 0 42 42" fill="none" xmlns="http://www.w3.org/2000/svg">
<path d="M28 35V7C28 6.07174 27.6312 5.1815 26.9749 4.52513C26.3185 3.86875 25.4283 3.5 24.5 3.5H17.5C16.5717 3.5 15.6815 3.86875 15.0251 4.52513C14.3688 5.1815 14 6.07174 14 7V35M7 10.5H35C36.933 10.5 38.5 12.067 38.5 14V31.5C38.5 33.433 36.933 35 35 35H7C5.067 35 3.5 33.433 3.5 31.5V14C3.5 12.067 5.067 10.5 7 10.5Z" stroke="#68DEF3" stroke-width="4.375" stroke-linecap="round" stroke-linejoin="round"/>
</svg>
